<svg width="160" height="34" viewBox="0 0 160 34" fill="none" xmlns="http://www.w3.org/2000/svg">
<rect width="160" height="33.6842" fill="#1E295C"/>
<path d="M159 19.1447H126.864H111.521H90.8086H63.7681C58.8777 19.303 53.2486 19.1447 46.5081 19.1447C43.8327 19.1447 43.0561 20.5692 43.0561 20.5692C41.6521 23.2466 40.0597 25.8396 38.508 28.4496C38.508 28.4496 35.4643 32.9706 32.801 26.0515C32.271 24.6748 31.8523 23.3999 26.2184 8.57309C20.5846 -6.25371 15.6666 11.8309 13.2271 24.1866C14.5159 18.6355 14.7574 10.0773 10.891 8.57309C7.0246 7.06893 3.59995 23.0201 2.49527 30.541L2 33" stroke="#FF9D14" stroke-width="1.5"/>
<path d="M53.5376 9.72C54.1009 9.72 54.6036 9.837 55.0456 10.071C55.4963 10.305 55.8473 10.6517 56.0986 11.111C56.3586 11.5703 56.4886 12.125 56.4886 12.775V17H55.0196V12.996C55.0196 12.3547 54.8593 11.865 54.5386 11.527C54.2179 11.1803 53.7803 11.007 53.2256 11.007C52.6709 11.007 52.2289 11.1803 51.8996 11.527C51.5789 11.865 51.4186 12.3547 51.4186 12.996V17H49.9496V12.996C49.9496 12.3547 49.7893 11.865 49.4686 11.527C49.1479 11.1803 48.7103 11.007 48.1556 11.007C47.6009 11.007 47.1589 11.1803 46.8296 11.527C46.5089 11.865 46.3486 12.3547 46.3486 12.996V17H44.8666V9.837H46.3486V10.656C46.5913 10.3613 46.8989 10.1317 47.2716 9.967C47.6443 9.80233 48.0429 9.72 48.4676 9.72C49.0396 9.72 49.5509 9.84133 50.0016 10.084C50.4523 10.3267 50.7989 10.6777 51.0416 11.137C51.2583 10.7037 51.5963 10.3613 52.0556 10.11C52.5149 9.85 53.0089 9.72 53.5376 9.72ZM61.4814 17.117C60.8054 17.117 60.1944 16.9653 59.6484 16.662C59.1024 16.35 58.6734 15.9167 58.3614 15.362C58.0494 14.7987 57.8934 14.1487 57.8934 13.412C57.8934 12.684 58.0537 12.0383 58.3744 11.475C58.6951 10.9117 59.1327 10.4783 59.6874 10.175C60.2421 9.87167 60.8617 9.72 61.5464 9.72C62.2311 9.72 62.8507 9.87167 63.4054 10.175C63.9601 10.4783 64.3977 10.9117 64.7184 11.475C65.0391 12.0383 65.1994 12.684 65.1994 13.412C65.1994 14.14 65.0347 14.7857 64.7054 15.349C64.3761 15.9123 63.9254 16.35 63.3534 16.662C62.7901 16.9653 62.1661 17.117 61.4814 17.117ZM61.4814 15.83C61.8627 15.83 62.2181 15.739 62.5474 15.557C62.8854 15.375 63.1584 15.102 63.3664 14.738C63.5744 14.374 63.6784 13.932 63.6784 13.412C63.6784 12.892 63.5787 12.4543 63.3794 12.099C63.1801 11.735 62.9157 11.462 62.5864 11.28C62.2571 11.098 61.9017 11.007 61.5204 11.007C61.1391 11.007 60.7837 11.098 60.4544 11.28C60.1337 11.462 59.8781 11.735 59.6874 12.099C59.4967 12.4543 59.4014 12.892 59.4014 13.412C59.4014 14.1833 59.5964 14.7813 59.9864 15.206C60.3851 15.622 60.8834 15.83 61.4814 15.83ZM70.2785 9.72C70.8418 9.72 71.3445 9.837 71.7865 10.071C72.2371 10.305 72.5881 10.6517 72.8395 11.111C73.0908 11.5703 73.2165 12.125 73.2165 12.775V17H71.7475V12.996C71.7475 12.3547 71.5871 11.865 71.2665 11.527C70.9458 11.1803 70.5081 11.007 69.9535 11.007C69.3988 11.007 68.9568 11.1803 68.6275 11.527C68.3068 11.865 68.1465 12.3547 68.1465 12.996V17H66.6645V9.837H68.1465V10.656C68.3891 10.3613 68.6968 10.1317 69.0695 9.967C69.4508 9.80233 69.8538 9.72 70.2785 9.72ZM76.8358 11.046V15.011C76.8358 15.2797 76.8965 15.4747 77.0178 15.596C77.1478 15.7087 77.3645 15.765 77.6678 15.765H78.5778V17H77.4078C76.7405 17 76.2292 16.844 75.8738 16.532C75.5185 16.22 75.3408 15.713 75.3408 15.011V11.046H74.4958V9.837H75.3408V8.056H76.8358V9.837H78.5778V11.046H76.8358ZM86.5088 13.243C86.5088 13.5117 86.4914 13.7543 86.4568 13.971H80.9838C81.0271 14.543 81.2394 15.0023 81.6208 15.349C82.0021 15.6957 82.4701 15.869 83.0248 15.869C83.8221 15.869 84.3854 15.5353 84.7148 14.868H86.3137C86.0971 15.5267 85.7028 16.0683 85.1308 16.493C84.5674 16.909 83.8654 17.117 83.0248 17.117C82.3401 17.117 81.7248 16.9653 81.1788 16.662C80.6414 16.35 80.2168 15.9167 79.9048 15.362C79.6014 14.7987 79.4498 14.1487 79.4498 13.412C79.4498 12.6753 79.5971 12.0297 79.8918 11.475C80.1951 10.9117 80.6154 10.4783 81.1528 10.175C81.6988 9.87167 82.3228 9.72 83.0248 9.72C83.7008 9.72 84.3031 9.86733 84.8318 10.162C85.3604 10.4567 85.7721 10.8727 86.0668 11.41C86.3614 11.9387 86.5088 12.5497 86.5088 13.243ZM84.9618 12.775C84.9531 12.229 84.7581 11.7913 84.3768 11.462C83.9954 11.1327 83.5231 10.968 82.9598 10.968C82.4484 10.968 82.0108 11.1327 81.6468 11.462C81.2828 11.7827 81.0661 12.2203 80.9968 12.775H84.9618ZM90.5672 17.117C90.0039 17.117 89.4969 17.0173 89.0462 16.818C88.6042 16.61 88.2532 16.3327 87.9932 15.986C87.7332 15.6307 87.5945 15.2363 87.5772 14.803H89.1112C89.1372 15.1063 89.2802 15.362 89.5402 15.57C89.8089 15.7693 90.1425 15.869 90.5412 15.869C90.9572 15.869 91.2779 15.791 91.5032 15.635C91.7372 15.4703 91.8542 15.2623 91.8542 15.011C91.8542 14.7423 91.7242 14.543 91.4642 14.413C91.2129 14.283 90.8099 14.14 90.2552 13.984C89.7179 13.8367 89.2802 13.6937 88.9422 13.555C88.6042 13.4163 88.3095 13.204 88.0582 12.918C87.8155 12.632 87.6942 12.255 87.6942 11.787C87.6942 11.4057 87.8069 11.059 88.0322 10.747C88.2575 10.4263 88.5782 10.175 88.9942 9.993C89.4189 9.811 89.9042 9.72 90.4502 9.72C91.2649 9.72 91.9192 9.928 92.4132 10.344C92.9159 10.7513 93.1845 11.3103 93.2192 12.021H91.7372C91.7112 11.7003 91.5812 11.4447 91.3472 11.254C91.1132 11.0633 90.7969 10.968 90.3982 10.968C90.0082 10.968 89.7092 11.0417 89.5012 11.189C89.2932 11.3363 89.1892 11.5313 89.1892 11.774C89.1892 11.9647 89.2585 12.125 89.3972 12.255C89.5359 12.385 89.7049 12.489 89.9042 12.567C90.1035 12.6363 90.3982 12.7273 90.7882 12.84C91.3082 12.9787 91.7329 13.1217 92.0622 13.269C92.4002 13.4077 92.6905 13.6157 92.9332 13.893C93.1759 14.1703 93.3015 14.5387 93.3102 14.998C93.3102 15.4053 93.1975 15.7693 92.9722 16.09C92.7469 16.4107 92.4262 16.662 92.0102 16.844C91.6029 17.026 91.1219 17.117 90.5672 17.117ZM96.3935 10.903C96.6449 10.5563 96.9872 10.2747 97.4205 10.058C97.8625 9.83267 98.3522 9.72 98.8895 9.72C99.5222 9.72 100.094 9.87167 100.606 10.175C101.117 10.4783 101.52 10.9117 101.815 11.475C102.109 12.0297 102.257 12.6667 102.257 13.386C102.257 14.1053 102.109 14.751 101.815 15.323C101.52 15.8863 101.113 16.3283 100.593 16.649C100.081 16.961 99.5135 17.117 98.8895 17.117C98.3349 17.117 97.8409 17.0087 97.4075 16.792C96.9829 16.5753 96.6449 16.298 96.3935 15.96V17H94.9115V7.38H96.3935V10.903ZM100.749 13.386C100.749 12.892 100.645 12.4673 100.437 12.112C100.237 11.748 99.9685 11.475 99.6305 11.293C99.3012 11.1023 98.9459 11.007 98.5645 11.007C98.1919 11.007 97.8365 11.1023 97.4985 11.293C97.1692 11.4837 96.9005 11.761 96.6925 12.125C96.4932 12.489 96.3935 12.918 96.3935 13.412C96.3935 13.906 96.4932 14.3393 96.6925 14.712C96.9005 15.076 97.1692 15.3533 97.4985 15.544C97.8365 15.7347 98.1919 15.83 98.5645 15.83C98.9459 15.83 99.3012 15.7347 99.6305 15.544C99.9685 15.3447 100.237 15.0587 100.437 14.686C100.645 14.3133 100.749 13.88 100.749 13.386ZM110.287 13.243C110.287 13.5117 110.27 13.7543 110.235 13.971H104.762C104.805 14.543 105.018 15.0023 105.399 15.349C105.78 15.6957 106.248 15.869 106.803 15.869C107.6 15.869 108.164 15.5353 108.493 14.868H110.092C109.875 15.5267 109.481 16.0683 108.909 16.493C108.346 16.909 107.644 17.117 106.803 17.117C106.118 17.117 105.503 16.9653 104.957 16.662C104.42 16.35 103.995 15.9167 103.683 15.362C103.38 14.7987 103.228 14.1487 103.228 13.412C103.228 12.6753 103.375 12.0297 103.67 11.475C103.973 10.9117 104.394 10.4783 104.931 10.175C105.477 9.87167 106.101 9.72 106.803 9.72C107.479 9.72 108.081 9.86733 108.61 10.162C109.139 10.4567 109.55 10.8727 109.845 11.41C110.14 11.9387 110.287 12.5497 110.287 13.243ZM108.74 12.775C108.731 12.229 108.536 11.7913 108.155 11.462C107.774 11.1327 107.301 10.968 106.738 10.968C106.227 10.968 105.789 11.1327 105.425 11.462C105.061 11.7827 104.844 12.2203 104.775 12.775H108.74ZM113.228 7.38V17H111.746V7.38H113.228ZM118.28 17.117C117.604 17.117 116.993 16.9653 116.447 16.662C115.901 16.35 115.472 15.9167 115.16 15.362C114.848 14.7987 114.692 14.1487 114.692 13.412C114.692 12.684 114.853 12.0383 115.173 11.475C115.494 10.9117 115.932 10.4783 116.486 10.175C117.041 9.87167 117.661 9.72 118.345 9.72C119.03 9.72 119.65 9.87167 120.204 10.175C120.759 10.4783 121.197 10.9117 121.517 11.475C121.838 12.0383 121.998 12.684 121.998 13.412C121.998 14.14 121.834 14.7857 121.504 15.349C121.175 15.9123 120.724 16.35 120.152 16.662C119.589 16.9653 118.965 17.117 118.28 17.117ZM118.28 15.83C118.662 15.83 119.017 15.739 119.346 15.557C119.684 15.375 119.957 15.102 120.165 14.738C120.373 14.374 120.477 13.932 120.477 13.412C120.477 12.892 120.378 12.4543 120.178 12.099C119.979 11.735 119.715 11.462 119.385 11.28C119.056 11.098 118.701 11.007 118.319 11.007C117.938 11.007 117.583 11.098 117.253 11.28C116.933 11.462 116.677 11.735 116.486 12.099C116.296 12.4543 116.2 12.892 116.2 13.412C116.2 14.1833 116.395 14.7813 116.785 15.206C117.184 15.622 117.682 15.83 118.28 15.83ZM126.063 17.117C125.5 17.117 124.993 17.0173 124.542 16.818C124.1 16.61 123.749 16.3327 123.489 15.986C123.229 15.6307 123.091 15.2363 123.073 14.803H124.607C124.633 15.1063 124.776 15.362 125.036 15.57C125.305 15.7693 125.639 15.869 126.037 15.869C126.453 15.869 126.774 15.791 126.999 15.635C127.233 15.4703 127.35 15.2623 127.35 15.011C127.35 14.7423 127.22 14.543 126.96 14.413C126.709 14.283 126.306 14.14 125.751 13.984C125.214 13.8367 124.776 13.6937 124.438 13.555C124.1 13.4163 123.806 13.204 123.554 12.918C123.312 12.632 123.19 12.255 123.19 11.787C123.19 11.4057 123.303 11.059 123.528 10.747C123.754 10.4263 124.074 10.175 124.49 9.993C124.915 9.811 125.4 9.72 125.946 9.72C126.761 9.72 127.415 9.928 127.909 10.344C128.412 10.7513 128.681 11.3103 128.715 12.021H127.233C127.207 11.7003 127.077 11.4447 126.843 11.254C126.609 11.0633 126.293 10.968 125.894 10.968C125.504 10.968 125.205 11.0417 124.997 11.189C124.789 11.3363 124.685 11.5313 124.685 11.774C124.685 11.9647 124.755 12.125 124.893 12.255C125.032 12.385 125.201 12.489 125.4 12.567C125.6 12.6363 125.894 12.7273 126.284 12.84C126.804 12.9787 127.229 13.1217 127.558 13.269C127.896 13.4077 128.187 13.6157 128.429 13.893C128.672 14.1703 128.798 14.5387 128.806 14.998C128.806 15.4053 128.694 15.7693 128.468 16.09C128.243 16.4107 127.922 16.662 127.506 16.844C127.099 17.026 126.618 17.117 126.063 17.117Z" fill="#E5E5E5"/>
<path d="M131.006 17.091C130.737 17.091 130.512 17 130.33 16.818C130.148 16.636 130.057 16.4107 130.057 16.142C130.057 15.8733 130.148 15.648 130.33 15.466C130.512 15.284 130.737 15.193 131.006 15.193C131.266 15.193 131.487 15.284 131.669 15.466C131.851 15.648 131.942 15.8733 131.942 16.142C131.942 16.4107 131.851 16.636 131.669 16.818C131.487 17 131.266 17.091 131.006 17.091ZM133.049 13.386C133.049 12.6667 133.197 12.0297 133.491 11.475C133.795 10.9203 134.202 10.4913 134.713 10.188C135.233 9.876 135.805 9.72 136.429 9.72C136.993 9.72 137.482 9.83267 137.898 10.058C138.323 10.2747 138.661 10.5477 138.912 10.877V9.837H140.407V17H138.912V15.934C138.661 16.272 138.319 16.5537 137.885 16.779C137.452 17.0043 136.958 17.117 136.403 17.117C135.788 17.117 135.225 16.961 134.713 16.649C134.202 16.3283 133.795 15.8863 133.491 15.323C133.197 14.751 133.049 14.1053 133.049 13.386ZM138.912 13.412C138.912 12.918 138.808 12.489 138.6 12.125C138.401 11.761 138.137 11.4837 137.807 11.293C137.478 11.1023 137.123 11.007 136.741 11.007C136.36 11.007 136.005 11.1023 135.675 11.293C135.346 11.475 135.077 11.748 134.869 12.112C134.67 12.4673 134.57 12.892 134.57 13.386C134.57 13.88 134.67 14.3133 134.869 14.686C135.077 15.0587 135.346 15.3447 135.675 15.544C136.013 15.7347 136.369 15.83 136.741 15.83C137.123 15.83 137.478 15.7347 137.807 15.544C138.137 15.3533 138.401 15.076 138.6 14.712C138.808 14.3393 138.912 13.906 138.912 13.412ZM143.836 10.89C144.087 10.5607 144.43 10.2833 144.863 10.058C145.296 9.83267 145.786 9.72 146.332 9.72C146.956 9.72 147.524 9.876 148.035 10.188C148.555 10.4913 148.962 10.9203 149.257 11.475C149.552 12.0297 149.699 12.6667 149.699 13.386C149.699 14.1053 149.552 14.751 149.257 15.323C148.962 15.8863 148.555 16.3283 148.035 16.649C147.524 16.961 146.956 17.117 146.332 17.117C145.786 17.117 145.301 17.0087 144.876 16.792C144.451 16.5667 144.105 16.2893 143.836 15.96V20.406H142.354V9.837H143.836V10.89ZM148.191 13.386C148.191 12.892 148.087 12.4673 147.879 12.112C147.68 11.748 147.411 11.475 147.073 11.293C146.744 11.1023 146.388 11.007 146.007 11.007C145.634 11.007 145.279 11.1023 144.941 11.293C144.612 11.4837 144.343 11.761 144.135 12.125C143.936 12.489 143.836 12.918 143.836 13.412C143.836 13.906 143.936 14.3393 144.135 14.712C144.343 15.076 144.612 15.3533 144.941 15.544C145.279 15.7347 145.634 15.83 146.007 15.83C146.388 15.83 146.744 15.7347 147.073 15.544C147.411 15.3447 147.68 15.0587 147.879 14.686C148.087 14.3133 148.191 13.88 148.191 13.386ZM152.646 10.89C152.898 10.5607 153.24 10.2833 153.673 10.058C154.107 9.83267 154.596 9.72 155.142 9.72C155.766 9.72 156.334 9.876 156.845 10.188C157.365 10.4913 157.773 10.9203 158.067 11.475C158.362 12.0297 158.509 12.6667 158.509 13.386C158.509 14.1053 158.362 14.751 158.067 15.323C157.773 15.8863 157.365 16.3283 156.845 16.649C156.334 16.961 155.766 17.117 155.142 17.117C154.596 17.117 154.111 17.0087 153.686 16.792C153.262 16.5667 152.915 16.2893 152.646 15.96V20.406H151.164V9.837H152.646V10.89ZM157.001 13.386C157.001 12.892 156.897 12.4673 156.689 12.112C156.49 11.748 156.221 11.475 155.883 11.293C155.554 11.1023 155.199 11.007 154.817 11.007C154.445 11.007 154.089 11.1023 153.751 11.293C153.422 11.4837 153.153 11.761 152.945 12.125C152.746 12.489 152.646 12.918 152.646 13.412C152.646 13.906 152.746 14.3393 152.945 14.712C153.153 15.076 153.422 15.3533 153.751 15.544C154.089 15.7347 154.445 15.83 154.817 15.83C155.199 15.83 155.554 15.7347 155.883 15.544C156.221 15.3447 156.49 15.0587 156.689 14.686C156.897 14.3133 157.001 13.88 157.001 13.386Z" fill="#FF9D14"/>
</svg>
