<svg width="165" height="40" viewBox="0 0 165 40" fill="none" xmlns="http://www.w3.org/2000/svg">
<g clip-path="url(#clip0_130_14)">
<rect width="165" height="40" fill="white"/>
<rect width="165" height="40" fill="#1E295C"/>
<path d="M30.0539 24.3198C29.5636 22.9251 29.1762 22.6656 23.9638 7.64568C18.7515 -7.37423 14.2015 10.9459 11.9445 23.4625C13.1369 17.8391 13.3603 9.16944 9.78319 7.64568C6.20608 6.12192 3.03766 22.2809 2.01563 29.8997C1.85292 31.6047 2.99191 33.6197 3.96816 29.8997C4.45629 25.2497 7.13538 26.0214 12.7389 26.0214H56.6708H164.494H165" stroke="#FF9D14" stroke-width="2"/>
<path d="M49.3636 13.132C50.3156 13.132 51.081 13.426 51.6596 14.014C52.2476 14.5927 52.5416 15.4047 52.5416 16.45V21H50.5816V16.716C50.5816 16.1093 50.4276 15.6473 50.1196 15.33C49.8116 15.0033 49.3916 14.84 48.8596 14.84C48.3276 14.84 47.903 15.0033 47.5856 15.33C47.2776 15.6473 47.1236 16.1093 47.1236 16.716V21H45.1636V16.716C45.1636 16.1093 45.0096 15.6473 44.7016 15.33C44.3936 15.0033 43.9736 14.84 43.4416 14.84C42.9003 14.84 42.471 15.0033 42.1536 15.33C41.8456 15.6473 41.6916 16.1093 41.6916 16.716V21H39.7316V13.244H41.6916V14.182C41.9436 13.8553 42.2656 13.5987 42.6576 13.412C43.059 13.2253 43.4976 13.132 43.9736 13.132C44.5803 13.132 45.1216 13.2627 45.5976 13.524C46.0736 13.776 46.4423 14.14 46.7036 14.616C46.9556 14.168 47.3196 13.8087 47.7956 13.538C48.281 13.2673 48.8036 13.132 49.3636 13.132ZM57.8455 21.126C57.0989 21.126 56.4269 20.9627 55.8295 20.636C55.2322 20.3 54.7609 19.8287 54.4155 19.222C54.0795 18.6153 53.9115 17.9153 53.9115 17.122C53.9115 16.3287 54.0842 15.6287 54.4295 15.022C54.7842 14.4153 55.2649 13.9487 55.8715 13.622C56.4782 13.286 57.1549 13.118 57.9015 13.118C58.6482 13.118 59.3249 13.286 59.9315 13.622C60.5382 13.9487 61.0142 14.4153 61.3595 15.022C61.7142 15.6287 61.8915 16.3287 61.8915 17.122C61.8915 17.9153 61.7095 18.6153 61.3455 19.222C60.9909 19.8287 60.5055 20.3 59.8895 20.636C59.2829 20.9627 58.6015 21.126 57.8455 21.126ZM57.8455 19.418C58.2002 19.418 58.5315 19.334 58.8395 19.166C59.1569 18.9887 59.4089 18.7273 59.5955 18.382C59.7822 18.0367 59.8755 17.6167 59.8755 17.122C59.8755 16.3847 59.6795 15.82 59.2875 15.428C58.9049 15.0267 58.4335 14.826 57.8735 14.826C57.3135 14.826 56.8422 15.0267 56.4595 15.428C56.0862 15.82 55.8995 16.3847 55.8995 17.122C55.8995 17.8593 56.0815 18.4287 56.4455 18.83C56.8189 19.222 57.2855 19.418 57.8455 19.418ZM67.6273 13.132C68.5513 13.132 69.2979 13.426 69.8673 14.014C70.4366 14.5927 70.7213 15.4047 70.7213 16.45V21H68.7613V16.716C68.7613 16.1 68.6073 15.6287 68.2993 15.302C67.9913 14.966 67.5713 14.798 67.0393 14.798C66.4979 14.798 66.0686 14.966 65.7513 15.302C65.4433 15.6287 65.2893 16.1 65.2893 16.716V21H63.3293V13.244H65.2893V14.21C65.5506 13.874 65.8819 13.6127 66.2833 13.426C66.6939 13.23 67.1419 13.132 67.6273 13.132ZM74.8671 14.854V18.606C74.8671 18.8673 74.9278 19.0587 75.0491 19.18C75.1798 19.292 75.3945 19.348 75.6931 19.348H76.6031V21H75.3711C73.7191 21 72.8931 20.1973 72.8931 18.592V14.854H71.9691V13.244H72.8931V11.326H74.8671V13.244H76.6031V14.854H74.8671ZM85.2229 16.954C85.2229 17.234 85.2042 17.486 85.1669 17.71H79.4969C79.5435 18.27 79.7395 18.7087 80.0849 19.026C80.4302 19.3433 80.8549 19.502 81.3589 19.502C82.0869 19.502 82.6049 19.1893 82.9129 18.564H85.0269C84.8029 19.3107 84.3735 19.9267 83.7389 20.412C83.1042 20.888 82.3249 21.126 81.4009 21.126C80.6542 21.126 79.9822 20.9627 79.3849 20.636C78.7969 20.3 78.3349 19.8287 77.9989 19.222C77.6722 18.6153 77.5089 17.9153 77.5089 17.122C77.5089 16.3193 77.6722 15.6147 77.9989 15.008C78.3255 14.4013 78.7829 13.9347 79.3709 13.608C79.9589 13.2813 80.6355 13.118 81.4009 13.118C82.1382 13.118 82.7962 13.2767 83.3749 13.594C83.9629 13.9113 84.4155 14.364 84.7329 14.952C85.0595 15.5307 85.2229 16.198 85.2229 16.954ZM83.1929 16.394C83.1835 15.89 83.0015 15.4887 82.6469 15.19C82.2922 14.882 81.8582 14.728 81.3449 14.728C80.8595 14.728 80.4489 14.8773 80.1129 15.176C79.7862 15.4653 79.5855 15.8713 79.5109 16.394H83.1929ZM89.6215 21.126C88.9868 21.126 88.4175 21.014 87.9135 20.79C87.4095 20.5567 87.0082 20.244 86.7095 19.852C86.4202 19.46 86.2615 19.026 86.2335 18.55H88.2075C88.2448 18.8487 88.3895 19.096 88.6415 19.292C88.9028 19.488 89.2248 19.586 89.6075 19.586C89.9808 19.586 90.2702 19.5113 90.4755 19.362C90.6902 19.2127 90.7975 19.0213 90.7975 18.788C90.7975 18.536 90.6668 18.3493 90.4055 18.228C90.1535 18.0973 89.7475 17.9573 89.1875 17.808C88.6088 17.668 88.1328 17.5233 87.7595 17.374C87.3955 17.2247 87.0782 16.996 86.8075 16.688C86.5462 16.38 86.4155 15.9647 86.4155 15.442C86.4155 15.0127 86.5368 14.6207 86.7795 14.266C87.0315 13.9113 87.3862 13.6313 87.8435 13.426C88.3102 13.2207 88.8562 13.118 89.4815 13.118C90.4055 13.118 91.1428 13.3513 91.6935 13.818C92.2442 14.2753 92.5475 14.896 92.6035 15.68H90.7275C90.6995 15.372 90.5688 15.1293 90.3355 14.952C90.1115 14.7653 89.8082 14.672 89.4255 14.672C89.0708 14.672 88.7955 14.7373 88.5995 14.868C88.4128 14.9987 88.3195 15.1807 88.3195 15.414C88.3195 15.6753 88.4502 15.876 88.7115 16.016C88.9728 16.1467 89.3788 16.282 89.9295 16.422C90.4895 16.562 90.9515 16.7067 91.3155 16.856C91.6795 17.0053 91.9922 17.2387 92.2535 17.556C92.5242 17.864 92.6642 18.2747 92.6735 18.788C92.6735 19.236 92.5475 19.6373 92.2955 19.992C92.0528 20.3467 91.6982 20.6267 91.2315 20.832C90.7742 21.028 90.2375 21.126 89.6215 21.126ZM96.2424 14.378C96.4944 14.0047 96.8397 13.7013 97.2784 13.468C97.7264 13.2347 98.2351 13.118 98.8044 13.118C99.4671 13.118 100.064 13.2813 100.596 13.608C101.138 13.9347 101.562 14.4013 101.87 15.008C102.188 15.6053 102.346 16.3007 102.346 17.094C102.346 17.8873 102.188 18.592 101.87 19.208C101.562 19.8147 101.138 20.286 100.596 20.622C100.064 20.958 99.4671 21.126 98.8044 21.126C98.2257 21.126 97.7171 21.014 97.2784 20.79C96.8491 20.5567 96.5037 20.258 96.2424 19.894V21H94.2824V10.64H96.2424V14.378ZM100.344 17.094C100.344 16.6273 100.246 16.226 100.05 15.89C99.8637 15.5447 99.6117 15.2833 99.2944 15.106C98.9864 14.9287 98.6504 14.84 98.2864 14.84C97.9317 14.84 97.5957 14.9333 97.2784 15.12C96.9704 15.2973 96.7184 15.5587 96.5224 15.904C96.3357 16.2493 96.2424 16.6553 96.2424 17.122C96.2424 17.5887 96.3357 17.9947 96.5224 18.34C96.7184 18.6853 96.9704 18.9513 97.2784 19.138C97.5957 19.3153 97.9317 19.404 98.2864 19.404C98.6504 19.404 98.9864 19.3107 99.2944 19.124C99.6117 18.9373 99.8637 18.6713 100.05 18.326C100.246 17.9807 100.344 17.57 100.344 17.094ZM110.981 16.954C110.981 17.234 110.962 17.486 110.925 17.71H105.255C105.301 18.27 105.497 18.7087 105.843 19.026C106.188 19.3433 106.613 19.502 107.117 19.502C107.845 19.502 108.363 19.1893 108.671 18.564H110.785C110.561 19.3107 110.131 19.9267 109.497 20.412C108.862 20.888 108.083 21.126 107.159 21.126C106.412 21.126 105.74 20.9627 105.143 20.636C104.555 20.3 104.093 19.8287 103.757 19.222C103.43 18.6153 103.267 17.9153 103.267 17.122C103.267 16.3193 103.43 15.6147 103.757 15.008C104.083 14.4013 104.541 13.9347 105.129 13.608C105.717 13.2813 106.393 13.118 107.159 13.118C107.896 13.118 108.554 13.2767 109.133 13.594C109.721 13.9113 110.173 14.364 110.491 14.952C110.817 15.5307 110.981 16.198 110.981 16.954ZM108.951 16.394C108.941 15.89 108.759 15.4887 108.405 15.19C108.05 14.882 107.616 14.728 107.103 14.728C106.617 14.728 106.207 14.8773 105.871 15.176C105.544 15.4653 105.343 15.8713 105.269 16.394H108.951ZM114.371 10.64V21H112.411V10.64H114.371ZM119.752 21.126C119.005 21.126 118.333 20.9627 117.736 20.636C117.138 20.3 116.667 19.8287 116.322 19.222C115.986 18.6153 115.818 17.9153 115.818 17.122C115.818 16.3287 115.99 15.6287 116.336 15.022C116.69 14.4153 117.171 13.9487 117.778 13.622C118.384 13.286 119.061 13.118 119.808 13.118C120.554 13.118 121.231 13.286 121.838 13.622C122.444 13.9487 122.92 14.4153 123.266 15.022C123.62 15.6287 123.798 16.3287 123.798 17.122C123.798 17.9153 123.616 18.6153 123.252 19.222C122.897 19.8287 122.412 20.3 121.796 20.636C121.189 20.9627 120.508 21.126 119.752 21.126ZM119.752 19.418C120.106 19.418 120.438 19.334 120.746 19.166C121.063 18.9887 121.315 18.7273 121.502 18.382C121.688 18.0367 121.782 17.6167 121.782 17.122C121.782 16.3847 121.586 15.82 121.194 15.428C120.811 15.0267 120.34 14.826 119.78 14.826C119.22 14.826 118.748 15.0267 118.366 15.428C117.992 15.82 117.806 16.3847 117.806 17.122C117.806 17.8593 117.988 18.4287 118.352 18.83C118.725 19.222 119.192 19.418 119.752 19.418ZM128.204 21.126C127.569 21.126 127 21.014 126.496 20.79C125.992 20.5567 125.59 20.244 125.292 19.852C125.002 19.46 124.844 19.026 124.816 18.55H126.79C126.827 18.8487 126.972 19.096 127.224 19.292C127.485 19.488 127.807 19.586 128.19 19.586C128.563 19.586 128.852 19.5113 129.058 19.362C129.272 19.2127 129.38 19.0213 129.38 18.788C129.38 18.536 129.249 18.3493 128.988 18.228C128.736 18.0973 128.33 17.9573 127.77 17.808C127.191 17.668 126.715 17.5233 126.342 17.374C125.978 17.2247 125.66 16.996 125.39 16.688C125.128 16.38 124.998 15.9647 124.998 15.442C124.998 15.0127 125.119 14.6207 125.362 14.266C125.614 13.9113 125.968 13.6313 126.426 13.426C126.892 13.2207 127.438 13.118 128.064 13.118C128.988 13.118 129.725 13.3513 130.276 13.818C130.826 14.2753 131.13 14.896 131.186 15.68H129.31C129.282 15.372 129.151 15.1293 128.918 14.952C128.694 14.7653 128.39 14.672 128.008 14.672C127.653 14.672 127.378 14.7373 127.182 14.868C126.995 14.9987 126.902 15.1807 126.902 15.414C126.902 15.6753 127.032 15.876 127.294 16.016C127.555 16.1467 127.961 16.282 128.512 16.422C129.072 16.562 129.534 16.7067 129.898 16.856C130.262 17.0053 130.574 17.2387 130.836 17.556C131.106 17.864 131.246 18.2747 131.256 18.788C131.256 19.236 131.13 19.6373 130.878 19.992C130.635 20.3467 130.28 20.6267 129.814 20.832C129.356 21.028 128.82 21.126 128.204 21.126Z" fill="#E5E5E5"/>
<path d="M133.732 21.098C133.378 21.098 133.084 20.9907 132.85 20.776C132.626 20.552 132.514 20.2767 132.514 19.95C132.514 19.6233 132.626 19.3527 132.85 19.138C133.084 18.914 133.378 18.802 133.732 18.802C134.078 18.802 134.362 18.914 134.586 19.138C134.81 19.3527 134.922 19.6233 134.922 19.95C134.922 20.2767 134.81 20.552 134.586 20.776C134.362 20.9907 134.078 21.098 133.732 21.098ZM135.997 17.094C135.997 16.31 136.151 15.6147 136.459 15.008C136.776 14.4013 137.201 13.9347 137.733 13.608C138.274 13.2813 138.876 13.118 139.539 13.118C140.118 13.118 140.622 13.2347 141.051 13.468C141.49 13.7013 141.84 13.9953 142.101 14.35V13.244H144.075V21H142.101V19.866C141.849 20.23 141.499 20.5333 141.051 20.776C140.612 21.0093 140.104 21.126 139.525 21.126C138.872 21.126 138.274 20.958 137.733 20.622C137.201 20.286 136.776 19.8147 136.459 19.208C136.151 18.592 135.997 17.8873 135.997 17.094ZM142.101 17.122C142.101 16.646 142.008 16.24 141.821 15.904C141.634 15.5587 141.382 15.2973 141.065 15.12C140.748 14.9333 140.407 14.84 140.043 14.84C139.679 14.84 139.343 14.9287 139.035 15.106C138.727 15.2833 138.475 15.5447 138.279 15.89C138.092 16.226 137.999 16.6273 137.999 17.094C137.999 17.5607 138.092 17.9713 138.279 18.326C138.475 18.6713 138.727 18.9373 139.035 19.124C139.352 19.3107 139.688 19.404 140.043 19.404C140.407 19.404 140.748 19.3153 141.065 19.138C141.382 18.9513 141.634 18.69 141.821 18.354C142.008 18.0087 142.101 17.598 142.101 17.122ZM147.949 14.364C148.201 14.0093 148.547 13.7153 148.985 13.482C149.433 13.2393 149.942 13.118 150.511 13.118C151.174 13.118 151.771 13.2813 152.303 13.608C152.845 13.9347 153.269 14.4013 153.577 15.008C153.895 15.6053 154.053 16.3007 154.053 17.094C154.053 17.8873 153.895 18.592 153.577 19.208C153.269 19.8147 152.845 20.286 152.303 20.622C151.771 20.958 151.174 21.126 150.511 21.126C149.942 21.126 149.438 21.0093 148.999 20.776C148.57 20.5427 148.22 20.2487 147.949 19.894V24.696H145.989V13.244H147.949V14.364ZM152.051 17.094C152.051 16.6273 151.953 16.226 151.757 15.89C151.571 15.5447 151.319 15.2833 151.001 15.106C150.693 14.9287 150.357 14.84 149.993 14.84C149.639 14.84 149.303 14.9333 148.985 15.12C148.677 15.2973 148.425 15.5587 148.229 15.904C148.043 16.2493 147.949 16.6553 147.949 17.122C147.949 17.5887 148.043 17.9947 148.229 18.34C148.425 18.6853 148.677 18.9513 148.985 19.138C149.303 19.3153 149.639 19.404 149.993 19.404C150.357 19.404 150.693 19.3107 151.001 19.124C151.319 18.9373 151.571 18.6713 151.757 18.326C151.953 17.9807 152.051 17.57 152.051 17.094ZM157.438 14.364C157.69 14.0093 158.035 13.7153 158.474 13.482C158.922 13.2393 159.43 13.118 160 13.118C160.662 13.118 161.26 13.2813 161.792 13.608C162.333 13.9347 162.758 14.4013 163.066 15.008C163.383 15.6053 163.542 16.3007 163.542 17.094C163.542 17.8873 163.383 18.592 163.066 19.208C162.758 19.8147 162.333 20.286 161.792 20.622C161.26 20.958 160.662 21.126 160 21.126C159.43 21.126 158.926 21.0093 158.488 20.776C158.058 20.5427 157.708 20.2487 157.438 19.894V24.696H155.478V13.244H157.438V14.364ZM161.54 17.094C161.54 16.6273 161.442 16.226 161.246 15.89C161.059 15.5447 160.807 15.2833 160.49 15.106C160.182 14.9287 159.846 14.84 159.482 14.84C159.127 14.84 158.791 14.9333 158.474 15.12C158.166 15.2973 157.914 15.5587 157.718 15.904C157.531 16.2493 157.438 16.6553 157.438 17.122C157.438 17.5887 157.531 17.9947 157.718 18.34C157.914 18.6853 158.166 18.9513 158.474 19.138C158.791 19.3153 159.127 19.404 159.482 19.404C159.846 19.404 160.182 19.3107 160.49 19.124C160.807 18.9373 161.059 18.6713 161.246 18.326C161.442 17.9807 161.54 17.57 161.54 17.094Z" fill="#FF9D14"/>
<path d="M52.0344 35.056C51.5171 35.056 51.0398 34.936 50.6024 34.696C50.1704 34.4507 49.8264 34.112 49.5704 33.68C49.3198 33.2427 49.1944 32.752 49.1944 32.208C49.1944 31.664 49.3198 31.176 49.5704 30.744C49.8264 30.312 50.1704 29.976 50.6024 29.736C51.0398 29.4907 51.5171 29.368 52.0344 29.368C52.5571 29.368 53.0344 29.4907 53.4664 29.736C53.9038 29.976 54.2478 30.312 54.4984 30.744C54.7491 31.176 54.8744 31.664 54.8744 32.208C54.8744 32.752 54.7491 33.2427 54.4984 33.68C54.2478 34.112 53.9038 34.4507 53.4664 34.696C53.0344 34.936 52.5571 35.056 52.0344 35.056ZM52.0344 34.264C52.4024 34.264 52.7304 34.1813 53.0184 34.016C53.3064 33.8453 53.5304 33.6053 53.6904 33.296C53.8558 32.9813 53.9384 32.6187 53.9384 32.208C53.9384 31.7973 53.8558 31.4373 53.6904 31.128C53.5304 30.8187 53.3064 30.5813 53.0184 30.416C52.7304 30.2507 52.4024 30.168 52.0344 30.168C51.6664 30.168 51.3384 30.2507 51.0504 30.416C50.7624 30.5813 50.5358 30.8187 50.3704 31.128C50.2104 31.4373 50.1304 31.7973 50.1304 32.208C50.1304 32.6187 50.2104 32.9813 50.3704 33.296C50.5358 33.6053 50.7624 33.8453 51.0504 34.016C51.3384 34.1813 51.6664 34.264 52.0344 34.264ZM59.45 35.072C59.1033 35.072 58.7913 35.0107 58.514 34.888C58.242 34.76 58.026 34.5893 57.866 34.376C57.706 34.1573 57.6207 33.9147 57.61 33.648H58.554C58.57 33.8347 58.658 33.992 58.818 34.12C58.9833 34.2427 59.1887 34.304 59.434 34.304C59.69 34.304 59.8873 34.256 60.026 34.16C60.17 34.0587 60.242 33.9307 60.242 33.776C60.242 33.6107 60.162 33.488 60.002 33.408C59.8473 33.328 59.5993 33.24 59.258 33.144C58.9273 33.0533 58.658 32.9653 58.45 32.88C58.242 32.7947 58.0607 32.664 57.906 32.488C57.7567 32.312 57.682 32.08 57.682 31.792C57.682 31.5573 57.7513 31.344 57.89 31.152C58.0287 30.9547 58.226 30.8 58.482 30.688C58.7433 30.576 59.042 30.52 59.378 30.52C59.8793 30.52 60.282 30.648 60.586 30.904C60.8953 31.1547 61.0607 31.4987 61.082 31.936H60.17C60.154 31.7387 60.074 31.5813 59.93 31.464C59.786 31.3467 59.5913 31.288 59.346 31.288C59.106 31.288 58.922 31.3333 58.794 31.424C58.666 31.5147 58.602 31.6347 58.602 31.784C58.602 31.9013 58.6447 32 58.73 32.08C58.8153 32.16 58.9193 32.224 59.042 32.272C59.1647 32.3147 59.346 32.3707 59.586 32.44C59.906 32.5253 60.1673 32.6133 60.37 32.704C60.578 32.7893 60.7567 32.9173 60.906 33.088C61.0553 33.2587 61.1327 33.4853 61.138 33.768C61.138 34.0187 61.0687 34.2427 60.93 34.44C60.7913 34.6373 60.594 34.792 60.338 34.904C60.0873 35.016 59.7913 35.072 59.45 35.072ZM66.1634 32.688C66.1634 32.8533 66.1528 33.0027 66.1314 33.136H62.7634C62.7901 33.488 62.9208 33.7707 63.1554 33.984C63.3901 34.1973 63.6781 34.304 64.0194 34.304C64.5101 34.304 64.8568 34.0987 65.0594 33.688H66.0434C65.9101 34.0933 65.6674 34.4267 65.3154 34.688C64.9688 34.944 64.5368 35.072 64.0194 35.072C63.5981 35.072 63.2194 34.9787 62.8834 34.792C62.5528 34.6 62.2914 34.3333 62.0994 33.992C61.9128 33.6453 61.8194 33.2453 61.8194 32.792C61.8194 32.3387 61.9101 31.9413 62.0914 31.6C62.2781 31.2533 62.5368 30.9867 62.8674 30.8C63.2034 30.6133 63.5874 30.52 64.0194 30.52C64.4354 30.52 64.8061 30.6107 65.1314 30.792C65.4568 30.9733 65.7101 31.2293 65.8914 31.56C66.0728 31.8853 66.1634 32.2613 66.1634 32.688ZM65.2114 32.4C65.2061 32.064 65.0861 31.7947 64.8514 31.592C64.6168 31.3893 64.3261 31.288 63.9794 31.288C63.6648 31.288 63.3954 31.3893 63.1714 31.592C62.9474 31.7893 62.8141 32.0587 62.7714 32.4H65.2114ZM71.0529 30.592V35H70.1409V34.48C69.9969 34.6613 69.8076 34.8053 69.5729 34.912C69.3436 35.0133 69.0983 35.064 68.8369 35.064C68.4903 35.064 68.1783 34.992 67.9009 34.848C67.6289 34.704 67.4129 34.4907 67.2529 34.208C67.0983 33.9253 67.0209 33.584 67.0209 33.184V30.592H67.9249V33.048C67.9249 33.4427 68.0236 33.7467 68.2209 33.96C68.4183 34.168 68.6876 34.272 69.0289 34.272C69.3703 34.272 69.6396 34.168 69.8369 33.96C70.0396 33.7467 70.1409 33.4427 70.1409 33.048V30.592H71.0529ZM76.5584 30.52C76.905 30.52 77.2144 30.592 77.4864 30.736C77.7637 30.88 77.9797 31.0933 78.1344 31.376C78.289 31.6587 78.3664 32 78.3664 32.4V35H77.4624V32.536C77.4624 32.1413 77.3637 31.84 77.1664 31.632C76.969 31.4187 76.6997 31.312 76.3584 31.312C76.017 31.312 75.745 31.4187 75.5424 31.632C75.345 31.84 75.2464 32.1413 75.2464 32.536V35H74.3344V30.592H75.2464V31.096C75.3957 30.9147 75.585 30.7733 75.8144 30.672C76.049 30.5707 76.297 30.52 76.5584 30.52ZM83.5697 32.688C83.5697 32.8533 83.559 33.0027 83.5377 33.136H80.1697C80.1964 33.488 80.327 33.7707 80.5617 33.984C80.7964 34.1973 81.0844 34.304 81.4257 34.304C81.9164 34.304 82.263 34.0987 82.4657 33.688H83.4497C83.3164 34.0933 83.0737 34.4267 82.7217 34.688C82.375 34.944 81.943 35.072 81.4257 35.072C81.0044 35.072 80.6257 34.9787 80.2897 34.792C79.959 34.6 79.6977 34.3333 79.5057 33.992C79.319 33.6453 79.2257 33.2453 79.2257 32.792C79.2257 32.3387 79.3164 31.9413 79.4977 31.6C79.6844 31.2533 79.943 30.9867 80.2737 30.8C80.6097 30.6133 80.9937 30.52 81.4257 30.52C81.8417 30.52 82.2124 30.6107 82.5377 30.792C82.863 30.9733 83.1164 31.2293 83.2977 31.56C83.479 31.8853 83.5697 32.2613 83.5697 32.688ZM82.6177 32.4C82.6124 32.064 82.4924 31.7947 82.2577 31.592C82.023 31.3893 81.7324 31.288 81.3857 31.288C81.071 31.288 80.8017 31.3893 80.5777 31.592C80.3537 31.7893 80.2204 32.0587 80.1777 32.4H82.6177ZM86.2432 30.52C86.5845 30.52 86.8859 30.5893 87.1472 30.728C87.4139 30.8613 87.6219 31.0293 87.7712 31.232V30.592H88.6912V35.072C88.6912 35.4773 88.6059 35.8373 88.4352 36.152C88.2645 36.472 88.0165 36.7227 87.6912 36.904C87.3712 37.0853 86.9872 37.176 86.5392 37.176C85.9419 37.176 85.4459 37.0347 85.0512 36.752C84.6565 36.4747 84.4325 36.096 84.3792 35.616H85.2832C85.3525 35.8453 85.4992 36.0293 85.7232 36.168C85.9525 36.312 86.2245 36.384 86.5392 36.384C86.9072 36.384 87.2032 36.272 87.4272 36.048C87.6565 35.824 87.7712 35.4987 87.7712 35.072V34.336C87.6165 34.544 87.4059 34.72 87.1392 34.864C86.8779 35.0027 86.5792 35.072 86.2432 35.072C85.8592 35.072 85.5072 34.976 85.1872 34.784C84.8725 34.5867 84.6219 34.3147 84.4352 33.968C84.2539 33.616 84.1632 33.2187 84.1632 32.776C84.1632 32.3333 84.2539 31.9413 84.4352 31.6C84.6219 31.2587 84.8725 30.9947 85.1872 30.808C85.5072 30.616 85.8592 30.52 86.2432 30.52ZM87.7712 32.792C87.7712 32.488 87.7072 32.224 87.5792 32C87.4565 31.776 87.2939 31.6053 87.0912 31.488C86.8885 31.3707 86.6699 31.312 86.4352 31.312C86.2005 31.312 85.9819 31.3707 85.7792 31.488C85.5765 31.6 85.4112 31.768 85.2832 31.992C85.1605 32.2107 85.0992 32.472 85.0992 32.776C85.0992 33.08 85.1605 33.3467 85.2832 33.576C85.4112 33.8053 85.5765 33.9813 85.7792 34.104C85.9872 34.2213 86.2059 34.28 86.4352 34.28C86.6699 34.28 86.8885 34.2213 87.0912 34.104C87.2939 33.9867 87.4565 33.816 87.5792 33.592C87.7072 33.3627 87.7712 33.096 87.7712 32.792ZM91.8011 35.072C91.3851 35.072 91.0091 34.9787 90.6731 34.792C90.3371 34.6 90.0731 34.3333 89.8811 33.992C89.6891 33.6453 89.5931 33.2453 89.5931 32.792C89.5931 32.344 89.6917 31.9467 89.8891 31.6C90.0864 31.2533 90.3557 30.9867 90.6971 30.8C91.0384 30.6133 91.4197 30.52 91.8411 30.52C92.2624 30.52 92.6437 30.6133 92.9851 30.8C93.3264 30.9867 93.5957 31.2533 93.7931 31.6C93.9904 31.9467 94.0891 32.344 94.0891 32.792C94.0891 33.24 93.9877 33.6373 93.7851 33.984C93.5824 34.3307 93.3051 34.6 92.9531 34.792C92.6064 34.9787 92.2224 35.072 91.8011 35.072ZM91.8011 34.28C92.0357 34.28 92.2544 34.224 92.4571 34.112C92.6651 34 92.8331 33.832 92.9611 33.608C93.0891 33.384 93.1531 33.112 93.1531 32.792C93.1531 32.472 93.0917 32.2027 92.9691 31.984C92.8464 31.76 92.6837 31.592 92.4811 31.48C92.2784 31.368 92.0597 31.312 91.8251 31.312C91.5904 31.312 91.3717 31.368 91.1691 31.48C90.9717 31.592 90.8144 31.76 90.6971 31.984C90.5797 32.2027 90.5211 32.472 90.5211 32.792C90.5211 33.2667 90.6411 33.6347 90.8811 33.896C91.1264 34.152 91.4331 34.28 91.8011 34.28ZM94.6866 32.792C94.6866 32.3387 94.7773 31.9413 94.9586 31.6C95.1453 31.2533 95.4013 30.9867 95.7266 30.8C96.052 30.6133 96.4253 30.52 96.8466 30.52C97.38 30.52 97.82 30.648 98.1666 30.904C98.5186 31.1547 98.756 31.5147 98.8786 31.984H97.8946C97.8146 31.7653 97.6866 31.5947 97.5106 31.472C97.3346 31.3493 97.1133 31.288 96.8466 31.288C96.4733 31.288 96.1746 31.4213 95.9506 31.688C95.732 31.9493 95.6226 32.3173 95.6226 32.792C95.6226 33.2667 95.732 33.6373 95.9506 33.904C96.1746 34.1707 96.4733 34.304 96.8466 34.304C97.3746 34.304 97.724 34.072 97.8946 33.608H98.8786C98.7506 34.056 98.5106 34.4133 98.1586 34.68C97.8066 34.9413 97.3693 35.072 96.8466 35.072C96.4253 35.072 96.052 34.9787 95.7266 34.792C95.4013 34.6 95.1453 34.3333 94.9586 33.992C94.7773 33.6453 94.6866 33.2453 94.6866 32.792ZM100.7 30.592V35H99.7875V30.592H100.7ZM101.068 29.408L99.2995 30.28V29.608L101.068 28.632V29.408ZM103.809 35.072C103.393 35.072 103.017 34.9787 102.681 34.792C102.345 34.6 102.081 34.3333 101.889 33.992C101.697 33.6453 101.601 33.2453 101.601 32.792C101.601 32.344 101.7 31.9467 101.897 31.6C102.094 31.2533 102.364 30.9867 102.705 30.8C103.046 30.6133 103.428 30.52 103.849 30.52C104.27 30.52 104.652 30.6133 104.993 30.8C105.334 30.9867 105.604 31.2533 105.801 31.6C105.998 31.9467 106.097 32.344 106.097 32.792C106.097 33.24 105.996 33.6373 105.793 33.984C105.59 34.3307 105.313 34.6 104.961 34.792C104.614 34.9787 104.23 35.072 103.809 35.072ZM103.809 34.28C104.044 34.28 104.262 34.224 104.465 34.112C104.673 34 104.841 33.832 104.969 33.608C105.097 33.384 105.161 33.112 105.161 32.792C105.161 32.472 105.1 32.2027 104.977 31.984C104.854 31.76 104.692 31.592 104.489 31.48C104.286 31.368 104.068 31.312 103.833 31.312C103.598 31.312 103.38 31.368 103.177 31.48C102.98 31.592 102.822 31.76 102.705 31.984C102.588 32.2027 102.529 32.472 102.529 32.792C102.529 33.2667 102.649 33.6347 102.889 33.896C103.134 34.152 103.441 34.28 103.809 34.28ZM108.773 32.792C108.773 32.3387 108.863 31.9413 109.045 31.6C109.231 31.2533 109.487 30.9867 109.813 30.8C110.138 30.6133 110.511 30.52 110.933 30.52C111.466 30.52 111.906 30.648 112.253 30.904C112.605 31.1547 112.842 31.5147 112.965 31.984H111.981C111.901 31.7653 111.773 31.5947 111.597 31.472C111.421 31.3493 111.199 31.288 110.933 31.288C110.559 31.288 110.261 31.4213 110.037 31.688C109.818 31.9493 109.709 32.3173 109.709 32.792C109.709 33.2667 109.818 33.6373 110.037 33.904C110.261 34.1707 110.559 34.304 110.933 34.304C111.461 34.304 111.81 34.072 111.981 33.608H112.965C112.837 34.056 112.597 34.4133 112.245 34.68C111.893 34.9413 111.455 35.072 110.933 35.072C110.511 35.072 110.138 34.9787 109.813 34.792C109.487 34.6 109.231 34.3333 109.045 33.992C108.863 33.6453 108.773 33.2453 108.773 32.792ZM115.785 35.072C115.369 35.072 114.993 34.9787 114.657 34.792C114.321 34.6 114.057 34.3333 113.865 33.992C113.673 33.6453 113.577 33.2453 113.577 32.792C113.577 32.344 113.676 31.9467 113.873 31.6C114.071 31.2533 114.34 30.9867 114.681 30.8C115.023 30.6133 115.404 30.52 115.825 30.52C116.247 30.52 116.628 30.6133 116.969 30.8C117.311 30.9867 117.58 31.2533 117.777 31.6C117.975 31.9467 118.073 32.344 118.073 32.792C118.073 33.24 117.972 33.6373 117.769 33.984C117.567 34.3307 117.289 34.6 116.937 34.792C116.591 34.9787 116.207 35.072 115.785 35.072ZM115.785 34.28C116.02 34.28 116.239 34.224 116.441 34.112C116.649 34 116.817 33.832 116.945 33.608C117.073 33.384 117.137 33.112 117.137 32.792C117.137 32.472 117.076 32.2027 116.953 31.984C116.831 31.76 116.668 31.592 116.465 31.48C116.263 31.368 116.044 31.312 115.809 31.312C115.575 31.312 115.356 31.368 115.153 31.48C114.956 31.592 114.799 31.76 114.681 31.984C114.564 32.2027 114.505 32.472 114.505 32.792C114.505 33.2667 114.625 33.6347 114.865 33.896C115.111 34.152 115.417 34.28 115.785 34.28ZM124.311 30.52C124.658 30.52 124.967 30.592 125.239 30.736C125.516 30.88 125.732 31.0933 125.887 31.376C126.047 31.6587 126.127 32 126.127 32.4V35H125.223V32.536C125.223 32.1413 125.124 31.84 124.927 31.632C124.73 31.4187 124.46 31.312 124.119 31.312C123.778 31.312 123.506 31.4187 123.303 31.632C123.106 31.84 123.007 32.1413 123.007 32.536V35H122.103V32.536C122.103 32.1413 122.004 31.84 121.807 31.632C121.61 31.4187 121.34 31.312 120.999 31.312C120.658 31.312 120.386 31.4187 120.183 31.632C119.986 31.84 119.887 32.1413 119.887 32.536V35H118.975V30.592H119.887V31.096C120.036 30.9147 120.226 30.7733 120.455 30.672C120.684 30.5707 120.93 30.52 121.191 30.52C121.543 30.52 121.858 30.5947 122.135 30.744C122.412 30.8933 122.626 31.1093 122.775 31.392C122.908 31.1253 123.116 30.9147 123.399 30.76C123.682 30.6 123.986 30.52 124.311 30.52ZM131.328 32.688C131.328 32.8533 131.317 33.0027 131.296 33.136H127.928C127.954 33.488 128.085 33.7707 128.32 33.984C128.554 34.1973 128.842 34.304 129.184 34.304C129.674 34.304 130.021 34.0987 130.224 33.688H131.207C131.074 34.0933 130.832 34.4267 130.48 34.688C130.133 34.944 129.701 35.072 129.184 35.072C128.762 35.072 128.384 34.9787 128.048 34.792C127.717 34.6 127.456 34.3333 127.264 33.992C127.077 33.6453 126.984 33.2453 126.984 32.792C126.984 32.3387 127.074 31.9413 127.256 31.6C127.442 31.2533 127.701 30.9867 128.032 30.8C128.368 30.6133 128.752 30.52 129.184 30.52C129.6 30.52 129.97 30.6107 130.296 30.792C130.621 30.9733 130.874 31.2293 131.056 31.56C131.237 31.8853 131.328 32.2613 131.328 32.688ZM130.376 32.4C130.37 32.064 130.25 31.7947 130.016 31.592C129.781 31.3893 129.49 31.288 129.144 31.288C128.829 31.288 128.56 31.3893 128.336 31.592C128.112 31.7893 127.978 32.0587 127.936 32.4H130.376ZM134.081 34.304C134.609 34.304 134.958 34.072 135.129 33.608H136.113C135.996 34.0133 135.785 34.3467 135.481 34.608C135.182 34.864 134.806 35.0133 134.353 35.056V35.384C134.662 35.384 134.913 35.456 135.105 35.6C135.297 35.7493 135.393 35.9573 135.393 36.224C135.393 36.4907 135.297 36.7013 135.105 36.856C134.913 37.016 134.67 37.096 134.377 37.096H133.321V36.52H134.193C134.342 36.52 134.454 36.4987 134.529 36.456C134.604 36.4133 134.641 36.336 134.641 36.224C134.641 36.112 134.604 36.0347 134.529 35.992C134.454 35.9493 134.342 35.928 134.193 35.928H133.753V35.048C133.39 35.0053 133.07 34.8853 132.793 34.688C132.516 34.4853 132.3 34.224 132.145 33.904C131.996 33.5787 131.921 33.208 131.921 32.792C131.921 32.3387 132.012 31.9413 132.193 31.6C132.38 31.2533 132.636 30.9867 132.961 30.8C133.286 30.6133 133.66 30.52 134.081 30.52C134.614 30.52 135.054 30.648 135.401 30.904C135.753 31.1547 135.99 31.5147 136.113 31.984H135.129C135.049 31.7653 134.921 31.5947 134.745 31.472C134.569 31.3493 134.348 31.288 134.081 31.288C133.708 31.288 133.409 31.4213 133.185 31.688C132.966 31.9493 132.857 32.3173 132.857 32.792C132.857 33.2667 132.966 33.6373 133.185 33.904C133.409 34.1707 133.708 34.304 134.081 34.304ZM136.718 32.776C136.718 32.3333 136.809 31.9413 136.99 31.6C137.177 31.2587 137.427 30.9947 137.742 30.808C138.062 30.616 138.414 30.52 138.798 30.52C139.145 30.52 139.446 30.5893 139.702 30.728C139.963 30.8613 140.171 31.0293 140.326 31.232V30.592H141.246V35H140.326V34.344C140.171 34.552 139.961 34.7253 139.694 34.864C139.427 35.0027 139.123 35.072 138.782 35.072C138.403 35.072 138.057 34.976 137.742 34.784C137.427 34.5867 137.177 34.3147 136.99 33.968C136.809 33.616 136.718 33.2187 136.718 32.776ZM140.326 32.792C140.326 32.488 140.262 32.224 140.134 32C140.011 31.776 139.849 31.6053 139.646 31.488C139.443 31.3707 139.225 31.312 138.99 31.312C138.755 31.312 138.537 31.3707 138.334 31.488C138.131 31.6 137.966 31.768 137.838 31.992C137.715 32.2107 137.654 32.472 137.654 32.776C137.654 33.08 137.715 33.3467 137.838 33.576C137.966 33.8053 138.131 33.9813 138.334 34.104C138.542 34.2213 138.761 34.28 138.99 34.28C139.225 34.28 139.443 34.2213 139.646 34.104C139.849 33.9867 140.011 33.816 140.134 33.592C140.262 33.3627 140.326 33.096 140.326 32.792ZM144.218 32.776C144.218 32.3333 144.309 31.9413 144.49 31.6C144.677 31.2587 144.927 30.9947 145.242 30.808C145.562 30.616 145.914 30.52 146.298 30.52C146.645 30.52 146.946 30.5893 147.202 30.728C147.463 30.8613 147.671 31.0293 147.826 31.232V30.592H148.746V35H147.826V34.344C147.671 34.552 147.461 34.7253 147.194 34.864C146.927 35.0027 146.623 35.072 146.282 35.072C145.903 35.072 145.557 34.976 145.242 34.784C144.927 34.5867 144.677 34.3147 144.49 33.968C144.309 33.616 144.218 33.2187 144.218 32.776ZM147.826 32.792C147.826 32.488 147.762 32.224 147.634 32C147.511 31.776 147.349 31.6053 147.146 31.488C146.943 31.3707 146.725 31.312 146.49 31.312C146.255 31.312 146.037 31.3707 145.834 31.488C145.631 31.6 145.466 31.768 145.338 31.992C145.215 32.2107 145.154 32.472 145.154 32.776C145.154 33.08 145.215 33.3467 145.338 33.576C145.466 33.8053 145.631 33.9813 145.834 34.104C146.042 34.2213 146.261 34.28 146.49 34.28C146.725 34.28 146.943 34.2213 147.146 34.104C147.349 33.9867 147.511 33.816 147.634 33.592C147.762 33.3627 147.826 33.096 147.826 32.792ZM149.64 32.776C149.64 32.3333 149.73 31.9413 149.912 31.6C150.098 31.2587 150.349 30.9947 150.664 30.808C150.984 30.616 151.338 30.52 151.728 30.52C152.069 30.52 152.37 30.5893 152.632 30.728C152.898 30.8667 153.104 31.0347 153.248 31.232V30.592H154.168V37.096H153.248V34.36C153.104 34.5573 152.896 34.7253 152.624 34.864C152.352 35.0027 152.042 35.072 151.696 35.072C151.317 35.072 150.97 34.976 150.656 34.784C150.346 34.5867 150.098 34.3147 149.912 33.968C149.73 33.616 149.64 33.2187 149.64 32.776ZM153.248 32.792C153.248 32.488 153.184 32.224 153.056 32C152.933 31.776 152.77 31.6053 152.568 31.488C152.365 31.3707 152.146 31.312 151.912 31.312C151.677 31.312 151.458 31.3707 151.256 31.488C151.053 31.6 150.888 31.768 150.76 31.992C150.637 32.2107 150.576 32.472 150.576 32.776C150.576 33.08 150.637 33.3467 150.76 33.576C150.888 33.8053 151.053 33.9813 151.256 34.104C151.464 34.2213 151.682 34.28 151.912 34.28C152.146 34.28 152.365 34.2213 152.568 34.104C152.77 33.9867 152.933 33.816 153.056 33.592C153.184 33.3627 153.248 33.096 153.248 32.792ZM159.358 30.592V35H158.446V34.48C158.302 34.6613 158.112 34.8053 157.878 34.912C157.648 35.0133 157.403 35.064 157.142 35.064C156.795 35.064 156.483 34.992 156.206 34.848C155.934 34.704 155.718 34.4907 155.558 34.208C155.403 33.9253 155.326 33.584 155.326 33.184V30.592H156.23V33.048C156.23 33.4427 156.328 33.7467 156.526 33.96C156.723 34.168 156.992 34.272 157.334 34.272C157.675 34.272 157.944 34.168 158.142 33.96C158.344 33.7467 158.446 33.4427 158.446 33.048V30.592H159.358ZM161.025 30.008C160.86 30.008 160.721 29.952 160.609 29.84C160.497 29.728 160.441 29.5893 160.441 29.424C160.441 29.2587 160.497 29.12 160.609 29.008C160.721 28.896 160.86 28.84 161.025 28.84C161.185 28.84 161.321 28.896 161.433 29.008C161.545 29.12 161.601 29.2587 161.601 29.424C161.601 29.5893 161.545 29.728 161.433 29.84C161.321 29.952 161.185 30.008 161.025 30.008ZM161.473 30.592V35H160.561V30.592H161.473ZM163.038 35.056C162.873 35.056 162.734 35 162.622 34.888C162.51 34.776 162.454 34.6373 162.454 34.472C162.454 34.3067 162.51 34.168 162.622 34.056C162.734 33.944 162.873 33.888 163.038 33.888C163.198 33.888 163.334 33.944 163.446 34.056C163.558 34.168 163.614 34.3067 163.614 34.472C163.614 34.6373 163.558 34.776 163.446 34.888C163.334 35 163.198 35.056 163.038 35.056Z" fill="#989DAE"/>
<g filter="url(#filter0_d_130_14)">
<circle cx="12" cy="4" r="2" fill="#E5E5E5"/>
</g>
</g>
<defs>
<filter id="filter0_d_130_14" x="6" y="-2" width="12" height="12" filterUnits="userSpaceOnUse" color-interpolation-filters="sRGB">
<feFlood flood-opacity="0" result="BackgroundImageFix"/>
<feColorMatrix in="SourceAlpha" type="matrix" values="0 0 0 0 0 0 0 0 0 0 0 0 0 0 0 0 0 0 127 0" result="hardAlpha"/>
<feOffset/>
<feGaussianBlur stdDeviation="2"/>
<feComposite in2="hardAlpha" operator="out"/>
<feColorMatrix type="matrix" values="0 0 0 0 0.898039 0 0 0 0 0.898039 0 0 0 0 0.898039 0 0 0 1 0"/>
<feBlend mode="normal" in2="BackgroundImageFix" result="effect1_dropShadow_130_14"/>
<feBlend mode="normal" in="SourceGraphic" in2="effect1_dropShadow_130_14" result="shape"/>
</filter>
<clipPath id="clip0_130_14">
<rect width="165" height="40" fill="white"/>
</clipPath>
</defs>
</svg>
